<svg width="800" height="600" viewBox="0 0 800 600" fill="none" xmlns="http://www.w3.org/2000/svg">
  <rect width="800" height="600" fill="#F8FAFC"/>
  
  {/* Boîtier principal */}
  <rect x="250" y="200" width="300" height="200" rx="20" fill="#E2E8F0" stroke="#64748B" stroke-width="4"/>
  
  {/* Écran */}
  <rect x="270" y="220" width="260" height="100" rx="10" fill="#F1F5F9" stroke="#64748B" stroke-width="2"/>
  
  {/* Graphique sur l'écran */}
  <path d="M280 270C290 270 295 260 300 260C305 260 310 280 315 280C320 280 325 250 330 250C335 250 340 290 345 290C350 290 355 240 360 240" stroke="#0EA5E9" stroke-width="2"/>
  
  {/* Boutons et LED */}
  <circle cx="300" cy="350" r="15" fill="#0EA5E9"/>
  <circle cx="350" cy="350" r="15" fill="#0EA5E9" fill-opacity="0.6"/>
  <circle cx="400" cy="350" r="15" fill="#0EA5E9" fill-opacity="0.4"/>
  <circle cx="450" cy="350" r="15" fill="#0EA5E9" fill-opacity="0.2"/>
  
  {/* Connexions */}
  <path d="M270 400H530" stroke="#64748B" stroke-width="2" stroke-dasharray="4 4"/>
  <circle cx="300" cy="400" r="5" fill="#64748B"/>
  <circle cx="400" cy="400" r="5" fill="#64748B"/>
  <circle cx="500" cy="400" r="5" fill="#64748B"/>
  
  {/* Circuits décoratifs */}
  <path d="M250 300H200M550 300H600" stroke="#0EA5E9" stroke-width="2" stroke-dasharray="4 4"/>
  <path d="M250 350H220M550 350H580" stroke="#0EA5E9" stroke-width="2" stroke-dasharray="4 4"/>
</svg> 