<?xml version="1.0" encoding="utf-8"?>
<!-- Generator: Adobe Illustrator 25.3.1, SVG Export Plug-In . SVG Version: 6.00 Build 0)  -->
<svg version="1.1" id="Layer_1" xmlns="http://www.w3.org/2000/svg" xmlns:xlink="http://www.w3.org/1999/xlink" x="0px" y="0px"
	 viewBox="0 0 250 122.94" style="enable-background:new 0 0 250 122.94;" xml:space="preserve">
<style type="text/css">
	.st0{fill:#FFFFFF;}
	.st1{fill:#EC6422;}
</style>
<g>
	<g>
		<path class="st0" d="M89.36,34.82v6.61H77.4v5.26h8.82v6.32H77.4v11.7h-8.31V34.82H89.36z"/>
		<path class="st0" d="M103.73,63.04c-2.35-1.31-4.21-3.14-5.58-5.47c-1.37-2.33-2.06-4.97-2.06-7.91c0-2.94,0.69-5.58,2.06-7.91
			c1.37-2.33,3.23-4.15,5.58-5.45c2.35-1.3,4.92-1.95,7.72-1.95c2.83,0,5.41,0.65,7.74,1.95c2.33,1.3,4.18,3.12,5.53,5.45
			c1.36,2.33,2.04,4.97,2.04,7.91c0,2.94-0.68,5.58-2.04,7.91c-1.36,2.33-3.21,4.16-5.55,5.47c-2.35,1.31-4.92,1.97-7.72,1.97
			C108.65,65.01,106.08,64.36,103.73,63.04z M116.47,55.22c1.23-1.38,1.84-3.24,1.84-5.55c0-2.37-0.61-4.25-1.84-5.62
			c-1.23-1.37-2.9-2.06-5.02-2.06c-2.15,0-3.83,0.69-5.05,2.06c-1.22,1.37-1.82,3.24-1.82,5.62c0,2.35,0.61,4.21,1.82,5.58
			c1.22,1.37,2.9,2.06,5.05,2.06C113.57,57.3,115.24,56.6,116.47,55.22z"/>
		<path class="st0" d="M153.43,64.72l-5.81-8.44l-4.96,8.44h-9.46l9.71-15.31l-10.05-14.59h9.8l5.64,8.23l4.83-8.23h9.46L153,49.88
			l10.22,14.84H153.43z"/>
		<path class="st0" d="M178.61,34.82v29.89h-8.31V34.82H178.61z"/>
		<path class="st0" d="M207.87,34.82v6.61h-11.96v5.26h8.82v6.32h-8.82v11.7h-8.31V34.82H207.87z"/>
		<path class="st0" d="M242.81,34.82l-10.52,20.4v9.5h-8.35v-9.5l-10.52-20.4h9.5l5.26,11.53l5.26-11.53H242.81z"/>
	</g>
	<g>
		<path class="st0" d="M68.7,77.43c0.37-0.68,0.87-1.21,1.52-1.58c0.65-0.37,1.39-0.56,2.22-0.56c1.09,0,1.99,0.27,2.69,0.81
			c0.71,0.54,1.16,1.27,1.37,2.2h-1.21c-0.15-0.64-0.48-1.13-0.98-1.5c-0.5-0.36-1.12-0.54-1.87-0.54c-0.59,0-1.13,0.13-1.6,0.4
			c-0.47,0.27-0.85,0.67-1.12,1.2c-0.27,0.53-0.41,1.19-0.41,1.96c0,0.78,0.14,1.43,0.41,1.97c0.28,0.54,0.65,0.94,1.12,1.21
			c0.47,0.27,1.01,0.4,1.6,0.4c0.74,0,1.37-0.18,1.87-0.54c0.5-0.36,0.83-0.87,0.98-1.51h1.21c-0.2,0.91-0.66,1.63-1.37,2.18
			c-0.71,0.55-1.61,0.82-2.68,0.82c-0.83,0-1.57-0.19-2.22-0.56s-1.15-0.9-1.52-1.58c-0.37-0.68-0.55-1.49-0.55-2.4
			C68.15,78.92,68.33,78.12,68.7,77.43z"/>
		<path class="st0" d="M84.09,75.71c0.51-0.3,1.14-0.45,1.88-0.45v1.18h-0.31c-0.82,0-1.48,0.22-1.97,0.66
			c-0.5,0.44-0.74,1.18-0.74,2.22v4.93h-1.13v-8.83h1.13v1.57C83.2,76.44,83.58,76.01,84.09,75.71z"/>
		<path class="st0" d="M98.86,80.27h-7.33c0.03,0.67,0.19,1.24,0.49,1.71c0.29,0.47,0.67,0.83,1.15,1.08
			c0.47,0.24,0.99,0.36,1.55,0.36c0.73,0,1.35-0.18,1.85-0.53s0.83-0.84,0.99-1.44h1.2c-0.22,0.86-0.68,1.57-1.38,2.11
			c-0.71,0.54-1.59,0.82-2.66,0.82c-0.83,0-1.57-0.19-2.23-0.56c-0.66-0.37-1.17-0.9-1.54-1.58c-0.37-0.68-0.56-1.49-0.56-2.4
			c0-0.92,0.18-1.72,0.55-2.41c0.37-0.69,0.88-1.22,1.54-1.58s1.41-0.55,2.25-0.55c0.84,0,1.58,0.18,2.21,0.55
			c0.63,0.37,1.12,0.86,1.46,1.48c0.34,0.62,0.51,1.31,0.51,2.06C98.89,79.77,98.88,80.07,98.86,80.27z M97.35,77.67
			c-0.28-0.46-0.65-0.81-1.12-1.05c-0.47-0.24-0.99-0.36-1.55-0.36c-0.84,0-1.56,0.27-2.15,0.81c-0.59,0.54-0.92,1.3-0.99,2.28h6.21
			C97.76,78.69,97.62,78.13,97.35,77.67z"/>
		<path class="st0" d="M104.22,77.43c0.36-0.68,0.86-1.21,1.5-1.58c0.64-0.37,1.37-0.56,2.18-0.56c0.84,0,1.57,0.19,2.18,0.58
			c0.61,0.39,1.05,0.88,1.32,1.49v-1.94h1.13v8.83h-1.13v-1.96c-0.28,0.6-0.73,1.1-1.33,1.5c-0.61,0.39-1.33,0.59-2.18,0.59
			c-0.8,0-1.52-0.19-2.16-0.57c-0.64-0.38-1.14-0.91-1.5-1.6c-0.36-0.69-0.54-1.49-0.54-2.39
			C103.68,78.91,103.86,78.12,104.22,77.43z M110.96,77.96c-0.29-0.54-0.69-0.95-1.19-1.25s-1.05-0.44-1.66-0.44
			c-0.63,0-1.19,0.14-1.68,0.42c-0.5,0.28-0.89,0.69-1.17,1.22c-0.29,0.53-0.43,1.17-0.43,1.9c0,0.72,0.14,1.36,0.43,1.9
			c0.29,0.54,0.68,0.96,1.17,1.25c0.5,0.29,1.06,0.43,1.68,0.43c0.6,0,1.16-0.15,1.66-0.44s0.9-0.71,1.19-1.25
			c0.29-0.54,0.44-1.16,0.44-1.88C111.4,79.12,111.25,78.5,110.96,77.96z"/>
		<path class="st0" d="M119.82,76.37v5.48c0,0.54,0.1,0.91,0.31,1.12c0.2,0.21,0.57,0.31,1.08,0.31h1.04v0.97h-1.21
			c-0.8,0-1.39-0.19-1.78-0.56c-0.39-0.37-0.58-0.98-0.58-1.84v-5.48h-1.23v-0.95h1.23V73.2h1.15v2.22h2.43v0.95H119.82z"/>
		<path class="st0" d="M127.32,73.51c-0.16-0.16-0.24-0.36-0.24-0.6s0.08-0.43,0.24-0.59c0.16-0.16,0.36-0.23,0.58-0.23
			s0.42,0.08,0.58,0.23c0.16,0.16,0.24,0.35,0.24,0.59s-0.08,0.44-0.24,0.6c-0.16,0.16-0.36,0.24-0.58,0.24
			S127.49,73.67,127.32,73.51z M128.47,75.42v8.83h-1.13v-8.83H128.47z"/>
		<path class="st0" d="M137.42,83.15l2.98-7.73h1.2l-3.54,8.83h-1.28l-3.54-8.83h1.21L137.42,83.15z"/>
		<path class="st0" d="M154.32,80.27h-7.33c0.03,0.67,0.19,1.24,0.49,1.71c0.29,0.47,0.67,0.83,1.15,1.08
			c0.47,0.24,0.99,0.36,1.55,0.36c0.73,0,1.35-0.18,1.85-0.53s0.83-0.84,0.99-1.44h1.2c-0.22,0.86-0.68,1.57-1.38,2.11
			c-0.71,0.54-1.59,0.82-2.66,0.82c-0.83,0-1.57-0.19-2.23-0.56c-0.66-0.37-1.17-0.9-1.54-1.58c-0.37-0.68-0.56-1.49-0.56-2.4
			c0-0.92,0.18-1.72,0.55-2.41c0.37-0.69,0.88-1.22,1.54-1.58c0.66-0.37,1.41-0.55,2.25-0.55c0.84,0,1.58,0.18,2.21,0.55
			s1.12,0.86,1.46,1.48c0.34,0.62,0.51,1.31,0.51,2.06C154.35,79.77,154.34,80.07,154.32,80.27z M152.8,77.67
			c-0.28-0.46-0.65-0.81-1.12-1.05c-0.47-0.24-0.99-0.36-1.55-0.36c-0.84,0-1.56,0.27-2.15,0.81c-0.59,0.54-0.92,1.3-0.99,2.28h6.21
			C153.21,78.69,153.08,78.13,152.8,77.67z"/>
		<path class="st0" d="M167.34,77.43c0.36-0.68,0.86-1.21,1.5-1.58c0.64-0.37,1.37-0.56,2.18-0.56c0.84,0,1.57,0.19,2.18,0.58
			c0.61,0.39,1.05,0.88,1.32,1.49v-1.94h1.13v8.83h-1.13v-1.96c-0.28,0.6-0.72,1.1-1.33,1.5c-0.61,0.39-1.33,0.59-2.18,0.59
			c-0.8,0-1.52-0.19-2.16-0.57c-0.64-0.38-1.14-0.91-1.5-1.6c-0.36-0.69-0.54-1.49-0.54-2.39C166.8,78.91,166.98,78.12,167.34,77.43
			z M174.08,77.96c-0.29-0.54-0.69-0.95-1.19-1.25c-0.5-0.29-1.05-0.44-1.66-0.44c-0.63,0-1.19,0.14-1.68,0.42
			c-0.5,0.28-0.89,0.69-1.17,1.22c-0.29,0.53-0.43,1.17-0.43,1.9c0,0.72,0.14,1.36,0.43,1.9c0.29,0.54,0.68,0.96,1.17,1.25
			c0.5,0.29,1.06,0.43,1.68,0.43c0.6,0,1.16-0.15,1.66-0.44c0.5-0.29,0.9-0.71,1.19-1.25c0.29-0.54,0.44-1.16,0.44-1.88
			C174.52,79.12,174.37,78.5,174.08,77.96z"/>
		<path class="st0" d="M187.34,75.87c0.61,0.39,1.06,0.88,1.33,1.47v-1.92h1.13v9.06c0,0.81-0.18,1.53-0.53,2.15
			c-0.35,0.63-0.84,1.11-1.46,1.45c-0.63,0.34-1.34,0.51-2.13,0.51c-1.13,0-2.07-0.27-2.82-0.81c-0.75-0.54-1.22-1.27-1.4-2.2h1.12
			c0.19,0.61,0.56,1.1,1.11,1.47c0.54,0.37,1.21,0.55,2,0.55c0.57,0,1.08-0.12,1.54-0.36c0.45-0.24,0.81-0.6,1.07-1.08
			c0.26-0.47,0.39-1.03,0.39-1.68v-2.18c-0.28,0.6-0.72,1.1-1.33,1.5s-1.33,0.59-2.16,0.59c-0.81,0-1.53-0.19-2.18-0.57
			c-0.64-0.38-1.14-0.91-1.5-1.6c-0.36-0.69-0.54-1.49-0.54-2.39c0-0.91,0.18-1.7,0.54-2.39c0.36-0.68,0.86-1.21,1.5-1.58
			c0.64-0.37,1.37-0.56,2.18-0.56C186,75.29,186.73,75.48,187.34,75.87z M188.23,77.96c-0.29-0.54-0.69-0.95-1.19-1.25
			c-0.5-0.29-1.05-0.44-1.66-0.44c-0.63,0-1.19,0.14-1.68,0.42c-0.5,0.28-0.89,0.69-1.17,1.22c-0.29,0.53-0.43,1.17-0.43,1.9
			c0,0.72,0.14,1.36,0.43,1.9c0.29,0.54,0.68,0.96,1.17,1.25c0.5,0.29,1.06,0.43,1.68,0.43c0.6,0,1.16-0.15,1.66-0.44
			c0.5-0.29,0.9-0.71,1.19-1.25c0.29-0.54,0.44-1.16,0.44-1.88C188.67,79.12,188.52,78.5,188.23,77.96z"/>
		<path class="st0" d="M203.58,80.27h-7.33c0.03,0.67,0.19,1.24,0.49,1.71c0.29,0.47,0.67,0.83,1.15,1.08s0.99,0.36,1.55,0.36
			c0.73,0,1.35-0.18,1.85-0.53c0.5-0.36,0.83-0.84,0.99-1.44h1.2c-0.22,0.86-0.68,1.57-1.38,2.11c-0.71,0.54-1.59,0.82-2.66,0.82
			c-0.83,0-1.57-0.19-2.23-0.56c-0.66-0.37-1.17-0.9-1.54-1.58c-0.37-0.68-0.56-1.49-0.56-2.4c0-0.92,0.18-1.72,0.55-2.41
			c0.37-0.69,0.88-1.22,1.54-1.58c0.66-0.37,1.41-0.55,2.25-0.55c0.84,0,1.58,0.18,2.21,0.55c0.63,0.37,1.12,0.86,1.46,1.48
			c0.34,0.62,0.51,1.31,0.51,2.06C203.61,79.77,203.6,80.07,203.58,80.27z M202.07,77.67c-0.27-0.46-0.65-0.81-1.12-1.05
			c-0.47-0.24-0.99-0.36-1.55-0.36c-0.84,0-1.56,0.27-2.15,0.81c-0.59,0.54-0.92,1.3-0.99,2.28h6.21
			C202.47,78.69,202.34,78.13,202.07,77.67z"/>
		<path class="st0" d="M215.64,76.24c0.67,0.65,1,1.6,1,2.84v5.18h-1.12V79.2c0-0.96-0.24-1.69-0.72-2.2s-1.13-0.76-1.96-0.76
			c-0.85,0-1.53,0.27-2.04,0.81c-0.51,0.54-0.76,1.33-0.76,2.38v4.82h-1.13v-8.83h1.13v1.5c0.28-0.54,0.68-0.95,1.21-1.24
			c0.53-0.29,1.13-0.43,1.8-0.43C214.11,75.26,214.97,75.58,215.64,76.24z"/>
		<path class="st0" d="M222.42,77.43c0.37-0.68,0.87-1.21,1.52-1.58c0.65-0.37,1.39-0.56,2.22-0.56c1.09,0,1.99,0.27,2.69,0.81
			c0.71,0.54,1.16,1.27,1.37,2.2H229c-0.15-0.64-0.48-1.13-0.98-1.5c-0.5-0.36-1.12-0.54-1.87-0.54c-0.59,0-1.13,0.13-1.6,0.4
			c-0.47,0.27-0.85,0.67-1.12,1.2c-0.28,0.53-0.41,1.19-0.41,1.96c0,0.78,0.14,1.43,0.41,1.97c0.27,0.54,0.65,0.94,1.12,1.21
			c0.47,0.27,1.01,0.4,1.6,0.4c0.74,0,1.37-0.18,1.87-0.54c0.5-0.36,0.83-0.87,0.98-1.51h1.21c-0.2,0.91-0.66,1.63-1.37,2.18
			c-0.71,0.55-1.61,0.82-2.68,0.82c-0.83,0-1.57-0.19-2.22-0.56s-1.15-0.9-1.52-1.58c-0.37-0.68-0.55-1.49-0.55-2.4
			C221.87,78.92,222.05,78.12,222.42,77.43z"/>
		<path class="st0" d="M242.81,75.42l-5.24,12.99h-1.18l1.71-4.2l-3.62-8.78h1.25l3.01,7.54l2.91-7.54H242.81z"/>
	</g>
</g>
<path class="st1" d="M8.18,34.82v36.72L33.3,84.38l24.3-12.7V34.82l0,0C43.49,47.32,22.28,47.32,8.18,34.82L8.18,34.82z"/>
</svg>
