<?xml version="1.0" encoding="utf-8"?>
<!-- Generator: Adobe Illustrator 25.3.1, SVG Export Plug-In . SVG Version: 6.00 Build 0)  -->
<svg version="1.1" id="Layer_1" xmlns="http://www.w3.org/2000/svg" xmlns:xlink="http://www.w3.org/1999/xlink" x="0px" y="0px"
	 viewBox="0 0 200 200" style="enable-background:new 0 0 200 200;" xml:space="preserve">
<style type="text/css">
	.st0{fill:url(#SVGID_1_);}
	.st1{fill:url(#SVGID_2_);}
	.st2{fill:url(#SVGID_3_);}
	.st3{fill:url(#SVGID_4_);}
	.st4{fill:url(#SVGID_5_);}
</style>
<g>
	<linearGradient id="SVGID_1_" gradientUnits="userSpaceOnUse" x1="8.1617" y1="100" x2="154.4346" y2="100">
		<stop  offset="0" style="stop-color:#749844"/>
		<stop  offset="1" style="stop-color:#AAC92D"/>
	</linearGradient>
	<path class="st0" d="M53.87,181.47c0.45-1.37,0.95-2.85,1.6-4.33l0.64-1.55c0.95-2.3,1.93-4.69,3.17-7.03l0.69-1.4
		c0.48-0.97,0.96-1.94,1.47-2.9l2.48-4.29l1.26-2.16l4.23-6.41l4.68-6.27l1.72-2.07c1.39-1.74,2.94-3.54,4.8-5.57
		c-1.36-1.71-2.66-3.4-3.92-5.04c-3.51-4.78-6.1-8.54-8.15-11.84c-1.95-3.05-3.82-6.25-5.7-9.77c-0.56-1.01-1.06-2.03-1.52-2.96
		l-0.43-0.89c-0.58-1.14-1.05-2.17-1.41-3.03l-1.08-2.49c-1.7-3.9-1.78-8.23-0.22-12.19c1.56-3.96,4.56-7.08,8.47-8.78
		c2.02-0.88,4.16-1.33,6.35-1.33c6.34,0,12.08,3.76,14.61,9.57c0.26,0.59,0.48,1.19,0.66,1.79l0.67,2.27
		c0.16,0.6,0.37,1.3,0.68,2.14l0.3,0.88c0.22,0.65,0.46,1.37,0.78,2.15c0.75,1.96,1.91,4.92,3.57,8.39
		c1.32,2.89,3.1,6.32,5.59,10.81c0.29,0.49,0.59,1,0.89,1.52c2.01-1.61,4.05-3.18,6.09-4.69c6.66-4.79,12.12-8.4,17.2-11.36
		c5.78-3.43,11.5-6.51,16.97-9.13c4.82-2.38,9.53-4.4,13.44-6.01L120.82,29.3c-9.25-16.03-32.39-16.03-41.64,0L11.42,146.66
		c-9.25,16.03,2.31,36.06,20.82,36.06h21.21L53.87,181.47z"/>
	<g>
		<g>
			<linearGradient id="SVGID_2_" gradientUnits="userSpaceOnUse" x1="65.8968" y1="166.5906" x2="131.8856" y2="166.5906">
				<stop  offset="0" style="stop-color:#52762B"/>
				<stop  offset="1" style="stop-color:#94C11F"/>
			</linearGradient>
			<path class="st1" d="M91.9,150.46c-1.55,1.35-2.85,2.55-4.02,3.7l-1.77,1.66l-4.8,5.03l-4.42,5.21l-4.01,5.33
				c-0.5,0.71-1,1.48-1.5,2.25l-0.89,1.35c-1.3,1.86-2.39,3.81-3.45,5.71l-0.87,1.55c-0.1,0.16-0.18,0.32-0.27,0.48h65.99
				c-6.47-3.87-11.88-7.51-16.52-11.12c-5.38-4.09-10.48-8.42-15.14-12.85C97.48,156.21,94.75,153.48,91.9,150.46z"/>
			<linearGradient id="SVGID_3_" gradientUnits="userSpaceOnUse" x1="111.9408" y1="147.3309" x2="191.8383" y2="147.3309">
				<stop  offset="0" style="stop-color:#52762B"/>
				<stop  offset="1" style="stop-color:#94C11F"/>
			</linearGradient>
			<path class="st2" d="M168.62,112.09c-0.97,0.24-2,0.49-3.09,0.77c-4.24,1.14-9.31,2.57-14.64,4.45
				c-5.1,1.73-10.49,3.84-16.03,6.28c-4.79,2.06-9.88,4.6-16.49,8.23c-2.17,1.24-4.33,2.53-6.43,3.84c1.87,2.52,3.66,4.81,5.44,6.94
				c3.57,4.37,7.55,8.72,11.84,12.93c3.74,3.76,8.07,7.53,13.65,11.89c4.45,3.43,8.98,6.95,14.66,10.24
				c3.82,2.06,7.35,6.01,14.85,4.64c0.07-0.01,0.15-0.03,0.22-0.04c0.12-0.02,0.24-0.05,0.37-0.08c0.18-0.04,0.36-0.08,0.54-0.12
				c0.06-0.02,0.13-0.03,0.2-0.05c0.2-0.05,0.4-0.1,0.6-0.16c0.11-0.03,0.22-0.06,0.33-0.1c14.3-4.2,21.99-21.16,13.95-35.09
				L168.62,112.09z"/>
		</g>
		<g>
			<linearGradient id="SVGID_4_" gradientUnits="userSpaceOnUse" x1="65.8968" y1="147.4083" x2="191.8383" y2="147.4083">
				<stop  offset="0" style="stop-color:#00A7AE"/>
				<stop  offset="0.995" style="stop-color:#265EA9"/>
			</linearGradient>
			<path class="st3" d="M91.9,150.46c-1.55,1.35-2.85,2.55-4.02,3.7l-1.77,1.66l-4.8,5.03l-4.42,5.21l-4.01,5.33
				c-0.5,0.71-1,1.48-1.5,2.25l-0.89,1.35c-1.3,1.86-2.39,3.81-3.45,5.71l-0.87,1.55c-0.1,0.16-0.18,0.32-0.27,0.48h65.99
				c-6.47-3.87-11.88-7.51-16.52-11.12c-5.38-4.09-10.48-8.42-15.14-12.85C97.48,156.21,94.75,153.48,91.9,150.46z"/>
			<linearGradient id="SVGID_5_" gradientUnits="userSpaceOnUse" x1="65.8968" y1="147.4083" x2="191.8383" y2="147.4083">
				<stop  offset="0" style="stop-color:#00A7AE"/>
				<stop  offset="0.995" style="stop-color:#265EA9"/>
			</linearGradient>
			<path class="st4" d="M168.62,112.09c-0.97,0.24-2,0.49-3.09,0.77c-4.24,1.14-9.31,2.57-14.64,4.45
				c-5.1,1.73-10.49,3.84-16.03,6.28c-4.79,2.06-9.88,4.6-16.49,8.23c-2.17,1.24-4.33,2.53-6.43,3.84c1.87,2.52,3.66,4.81,5.44,6.94
				c3.57,4.37,7.55,8.72,11.84,12.93c3.74,3.76,8.07,7.53,13.65,11.89c4.45,3.43,8.98,6.95,14.66,10.24
				c3.82,2.06,7.35,6.01,14.85,4.64c0.07-0.01,0.15-0.03,0.22-0.04c0.12-0.02,0.24-0.05,0.37-0.08c0.18-0.04,0.36-0.08,0.54-0.12
				c0.06-0.02,0.13-0.03,0.2-0.05c0.2-0.05,0.4-0.1,0.6-0.16c0.11-0.03,0.22-0.06,0.33-0.1c14.3-4.2,21.99-21.16,13.95-35.09
				L168.62,112.09z"/>
		</g>
	</g>
</g>
</svg>
