<?xml version="1.0" encoding="UTF-8"?>
<svg width="24" height="24" viewBox="0 0 24 24" fill="none" xmlns="http://www.w3.org/2000/svg">
  <path d="M20.42 4.58C19.9183 4.07658 19.3222 3.67714 18.6658 3.40104C18.0094 3.12494 17.3057 2.97741 16.595 2.96733C15.8843 2.95725 15.1772 3.08483 14.5138 3.34084C13.8504 3.59685 13.2438 3.97775 12.729 4.466L12 5.194L11.271 4.466C10.2475 3.44248 8.86376 2.87026 7.42297 2.87026C5.98218 2.87026 4.59848 3.44248 3.575 4.466C2.55152 5.48952 1.97931 6.87321 1.97931 8.314C1.97931 9.75479 2.55152 11.1385 3.575 12.162L11.425 20.012C11.5159 20.1027 11.6236 20.1744 11.7421 20.2228C11.8605 20.2712 11.9873 20.2955 12.1155 20.2945C12.2437 20.2934 12.37 20.267 12.4876 20.2167C12.6051 20.1664 12.7115 20.093 12.801 20.001L20.42 12.382C21.4505 11.3653 22.0283 9.98279 22.0283 8.543C22.0283 7.10321 21.4505 5.72074 20.42 4.704V4.58Z" stroke="currentColor" stroke-width="2" stroke-linecap="round" stroke-linejoin="round"/>
</svg> 