<?xml version="1.0" encoding="UTF-8"?>
<svg width="100" height="100" viewBox="0 0 100 100" xmlns="http://www.w3.org/2000/svg">
  <g fill="#187baa">
    <!-- ISO Letters -->
    <path d="M20 30 L20 70 L25 70 L25 30 L20 30Z"/>
    <path d="M35 30 C30 30 27 33 27 38 L27 62 C27 67 30 70 35 70 L45 70 C50 70 53 67 53 62 L53 38 C53 33 50 30 45 30 L35 30ZM35 35 L45 35 C47 35 48 36 48 38 L48 62 C48 64 47 65 45 65 L35 65 C33 65 32 64 32 62 L32 38 C32 36 33 35 35 35Z"/>
    <path d="M60 30 C55 30 52 33 52 38 L52 62 C52 67 55 70 60 70 L70 70 C75 70 78 67 78 62 L78 38 C78 33 75 30 70 30 L60 30ZM60 35 L70 35 C72 35 73 36 73 38 L73 62 C73 64 72 65 70 65 L60 65 C58 65 57 64 57 62 L57 38 C57 36 58 35 60 35Z"/>
    <!-- 13485 Numbers -->
    <text x="15" y="90" font-family="Arial" font-size="14" fill="#187baa">13485</text>
    <!-- Medical Cross Symbol -->
    <path d="M85 45 L90 45 L90 55 L85 55 L85 60 L75 60 L75 55 L70 55 L70 45 L75 45 L75 40 L85 40 L85 45Z" fill="#187baa"/>
  </g>
</svg> 